<?xml version="1.0" encoding="utf-8"?>
<!-- Generator: Adobe Illustrator 16.0.0, SVG Export Plug-In . SVG Version: 6.00 Build 0)  -->
<!DOCTYPE svg PUBLIC "-//W3C//DTD SVG 1.1//EN" "http://www.w3.org/Graphics/SVG/1.1/DTD/svg11.dtd">
<svg version="1.1" id="Layer_1" xmlns="http://www.w3.org/2000/svg" xmlns:xlink="http://www.w3.org/1999/xlink" x="0px" y="0px"
	 width="250px" height="250px" viewBox="0 0 250 250" enable-background="new 0 0 250 250" xml:space="preserve">
<path fill="#CACACA" d="M145.013,73l-45.025,29H72c-4.971,0-9,4.029-9,9v28c0,4.971,4.029,9,9,9h27.987l45.025,28
	c3.859,0,6.987-4.029,6.987-9V82C152,77.029,148.872,73,145.013,73z"/>
<path fill="#CACACA" d="M165.061,104.064c4.469,5.918,7.121,13.283,7.121,21.27c0,8.668-3.127,16.602-8.307,22.748l7.873,7.873
	c7.178-8.176,11.54-18.887,11.54-30.621c0-11.056-3.87-21.203-10.319-29.177L165.061,104.064z"/>
<path fill="#CACACA" d="M181.361,89.354c7.458,9.876,11.885,22.167,11.885,35.496c0,14.468-5.219,27.708-13.863,37.966l13.14,13.14
	c11.979-13.645,19.259-31.521,19.259-51.105c0-18.449-6.459-35.385-17.222-48.693L181.361,89.354z"/>
<path display="none" fill="#E03243" d="M194.282,57.218c-38.202-38.203-100.362-38.203-138.564,0
	c-38.203,38.202-38.203,100.362,0,138.564c38.202,38.202,100.362,38.202,138.564,0S232.484,95.42,194.282,57.218z M182.95,68.55
	c30.134,30.134,31.845,78.085,5.143,110.25L72.7,63.407C104.864,36.705,152.816,38.416,182.95,68.55z M67.05,184.45
	C37.1,154.5,35.222,106.946,61.416,74.788l115.296,115.296C144.553,216.277,97,214.4,67.05,184.45z"/>
</svg>
